{
  "accessors": [
    {
      "bufferView": 1,
      "componentType": 5126,
      "count": 7797,
      "max": [
        53.58440017700195,
        4.474400043487549,
        -8.143600463867188
      ],
      "min": [
        29.145000457763672,
        -21.2632999420166,
        -32.635501861572266
      ],
      "type": "VEC3"
    },
    {
      "bufferView": 1,
      "byteOffset": 93564,
      "componentType": 5126,
      "count": 7797,
      "max": [
        0.9988322854042053,
        1.0,
        0.9997673034667969
      ],
      "min": [
        -0.999277651309967,
        -0.999984860420227,
        -1.0
      ],
      "type": "VEC3"
    },
    {
      "bufferView": 0,
      "componentType": 5125,
      "count": 27930,
      "type": "SCALAR"
    }
  ],
  "asset": {
    "extras": {
      "author": "lsky (https://sketchfab.com/lsky)",
      "license": "CC-BY-4.0 (http://creativecommons.org/licenses/by/4.0/)",
      "source": "https://sketchfab.com/3d-models/page-3-moon-7425636ad52a4c3196228b5b204a9e4a",
      "title": "Page 3 - moon"
    },
    "generator": "Sketchfab-11.90.0",
    "version": "2.0"
  },
  "bufferViews": [
    {
      "buffer": 0,
      "byteLength": 111720,
      "name": "floatBufferViews",
      "target": 34963
    },
    {
      "buffer": 0,
      "byteLength": 187128,
      "byteOffset": 111720,
      "byteStride": 12,
      "name": "floatBufferViews",
      "target": 34962
    }
  ],
  "buffers": [
    {
      "byteLength": 298848,
      "uri": "scene.bin"
    }
  ],
  "materials": [
    {
      "doubleSided": true,
      "name": "color_12568524",
      "pbrMetallicRoughness": {
        "baseColorFactor": [
          0.74902,
          0.780392,
          0.8,
          1.0
        ],
        "metallicFactor": 0.0
      }
    }
  ],
  "meshes": [
    {
      "name": "Object_0",
      "primitives": [
        {
          "attributes": {
            "NORMAL": 1,
            "POSITION": 0
          },
          "indices": 2,
          "material": 0,
          "mode": 4
        }
      ]
    }
  ],
  "nodes": [
    {
      "children": [
        1
      ],
      "matrix": [
        1.0,
        0.0,
        0.0,
        0.0,
        0.0,
        2.220446049250313e-16,
        -1.0,
        0.0,
        0.0,
        1.0,
        2.220446049250313e-16,
        0.0,
        0.0,
        0.0,
        0.0,
        1.0
      ],
      "name": "Sketchfab_model"
    },
    {
      "children": [
        2
      ],
      "name": "tinker.obj.cleaner.materialmerger.gles"
    },
    {
      "mesh": 0,
      "name": "Object_2"
    }
  ],
  "scene": 0,
  "scenes": [
    {
      "name": "Sketchfab_Scene",
      "nodes": [
        0
      ]
    }
  ]
}
