{
  "accessors": [
    {
      "bufferView": 1,
      "componentType": 5126,
      "count": 10981,
      "max": [
        56.5,
        -0.0,
        67.0
      ],
      "min": [
        -55.5,
        -134.66700744628906,
        -45.0
      ],
      "type": "VEC3"
    },
    {
      "bufferView": 1,
      "byteOffset": 131772,
      "componentType": 5126,
      "count": 10981,
      "max": [
        1.0,
        1.0,
        1.0
      ],
      "min": [
        -1.0,
        -1.0,
        -1.0
      ],
      "type": "VEC3"
    },
    {
      "bufferView": 0,
      "componentType": 5125,
      "count": 43422,
      "type": "SCALAR"
    },
    {
      "bufferView": 1,
      "byteOffset": 263544,
      "componentType": 5126,
      "count": 504,
      "max": [
        5.5,
        -89.58599853515625,
        16.0
      ],
      "min": [
        -4.5,
        -105.0,
        6.0
      ],
      "type": "VEC3"
    },
    {
      "bufferView": 1,
      "byteOffset": 269592,
      "componentType": 5126,
      "count": 504,
      "max": [
        0.999829888343811,
        0.8952823281288147,
        0.9999996423721313
      ],
      "min": [
        -0.9998825192451477,
        -1.0,
        -0.999461829662323
      ],
      "type": "VEC3"
    },
    {
      "bufferView": 0,
      "byteOffset": 173688,
      "componentType": 5125,
      "count": 1446,
      "type": "SCALAR"
    },
    {
      "bufferView": 1,
      "byteOffset": 275640,
      "componentType": 5126,
      "count": 19837,
      "max": [
        50.00299835205078,
        -16.757999420166016,
        60.50299835205078
      ],
      "min": [
        -49.00199890136719,
        -174.77699279785156,
        -38.50199890136719
      ],
      "type": "VEC3"
    },
    {
      "bufferView": 1,
      "byteOffset": 513684,
      "componentType": 5126,
      "count": 19837,
      "max": [
        0.9991252422332764,
        1.0,
        0.9999374747276306
      ],
      "min": [
        -1.0,
        -1.0,
        -0.9999625086784363
      ],
      "type": "VEC3"
    },
    {
      "bufferView": 0,
      "byteOffset": 179472,
      "componentType": 5125,
      "count": 88890,
      "type": "SCALAR"
    }
  ],
  "asset": {
    "extras": {
      "author": "lsky (https://sketchfab.com/lsky)",
      "license": "CC-BY-4.0 (http://creativecommons.org/licenses/by/4.0/)",
      "source": "https://sketchfab.com/3d-models/page-11-c8cc0f0fb7d942cebf446291f0259d25",
      "title": "Page 11"
    },
    "generator": "Sketchfab-11.91.0",
    "version": "2.0"
  },
  "bufferViews": [
    {
      "buffer": 0,
      "byteLength": 535032,
      "name": "floatBufferViews",
      "target": 34963
    },
    {
      "buffer": 0,
      "byteLength": 751728,
      "byteOffset": 535032,
      "byteStride": 12,
      "name": "floatBufferViews",
      "target": 34962
    }
  ],
  "buffers": [
    {
      "byteLength": 1286760,
      "uri": "scene.bin"
    }
  ],
  "materials": [
    {
      "doubleSided": true,
      "name": "color_10988977",
      "pbrMetallicRoughness": {
        "baseColorFactor": [
          0.654902,
          0.678431,
          0.694118,
          1.0
        ],
        "metallicFactor": 0.0
      }
    },
    {
      "doubleSided": true,
      "name": "color_12568524",
      "pbrMetallicRoughness": {
        "baseColorFactor": [
          0.74902,
          0.780392,
          0.8,
          1.0
        ],
        "metallicFactor": 0.0
      }
    },
    {
      "doubleSided": true,
      "name": "color_40919",
      "pbrMetallicRoughness": {
        "baseColorFactor": [
          0.0,
          0.623529,
          0.843137,
          1.0
        ],
        "metallicFactor": 0.0
      }
    }
  ],
  "meshes": [
    {
      "name": "Object_0",
      "primitives": [
        {
          "attributes": {
            "NORMAL": 1,
            "POSITION": 0
          },
          "indices": 2,
          "material": 0,
          "mode": 4
        }
      ]
    },
    {
      "name": "Object_1",
      "primitives": [
        {
          "attributes": {
            "NORMAL": 4,
            "POSITION": 3
          },
          "indices": 5,
          "material": 1,
          "mode": 4
        }
      ]
    },
    {
      "name": "Object_2",
      "primitives": [
        {
          "attributes": {
            "NORMAL": 7,
            "POSITION": 6
          },
          "indices": 8,
          "material": 2,
          "mode": 4
        }
      ]
    }
  ],
  "nodes": [
    {
      "children": [
        1
      ],
      "matrix": [
        -2.220446049250313e-16,
        3.3306690738754696e-16,
        -1.0,
        0.0,
        1.1102230246251565e-16,
        -1.0,
        -2.220446049250313e-16,
        0.0,
        -1.0,
        -2.220446049250313e-16,
        1.110223024625156e-16,
        0.0,
        11.499792098999023,
        -76.38858032226564,
        87.88836669921874,
        1.0
      ],
      "name": "Sketchfab_model"
    },
    {
      "children": [
        2,
        3,
        4
      ],
      "name": "tinker.obj.cleaner.materialmerger.gles"
    },
    {
      "mesh": 0,
      "name": "Object_2"
    },
    {
      "mesh": 1,
      "name": "Object_3"
    },
    {
      "mesh": 2,
      "name": "Object_4"
    }
  ],
  "scene": 0,
  "scenes": [
    {
      "name": "Sketchfab_Scene",
      "nodes": [
        0
      ]
    }
  ]
}
